<?xml version="1.0" encoding="utf-8"?>
<!-- Generator: Adobe Illustrator 19.2.0, SVG Export Plug-In . SVG Version: 6.00 Build 0)  -->
<svg version="1.1" id="Layer_2" xmlns="http://www.w3.org/2000/svg" xmlns:xlink="http://www.w3.org/1999/xlink" x="0px" y="0px"
	 viewBox="0 0 1000 1000" style="enable-background:new 0 0 1000 1000;" xml:space="preserve">
<style type="text/css">
	.st0{fill:#2D2D2D;}
	.st1{fill:#3A3A3A;}
	.st2{fill:#F0CF9E;}
	.st3{fill:none;stroke:#000000;stroke-width:5;stroke-miterlimit:10;}
	.st4{fill:#CEB18A;}
	.st5{fill:#D1D3D4;}
	.st6{fill:#F7F7F7;}
	.st7{fill:none;stroke:#C2C2C4;stroke-width:2;stroke-miterlimit:10;}
</style>
<g>
	<path class="st0" d="M539.2,745.6c-2.7,0-5.3-0.3-7.9-1c-16.8-4.4-26.8-21.6-22.4-38.4l25.4-96.7c3.6-13.8,16.1-23.5,30.4-23.5
		c2.7,0,5.4,0.3,8,1c16.2,4.3,26.9,21.3,22.9,36.5l-25.4,96.7C566.2,735.4,553.8,745.6,539.2,745.6z"/>
	<path d="M564.7,588.4c2.4,0,4.9,0.3,7.4,1h0c15.5,4.1,24.7,19.9,21.2,33.4l-25.4,96.7c-3.9,14.7-15.7,23.5-28.6,23.5
		c-2.4,0-4.9-0.3-7.3-0.9h0c-15.5-4.1-24.7-19.9-20.6-35.4l25.4-96.7C540.1,597.1,551.8,588.4,564.7,588.4 M564.7,583.4
		c-15.4,0-28.9,10.4-32.8,25.3l-25.4,96.7c-4.8,18.1,6.1,36.7,24.2,41.5c2.8,0.7,5.7,1.1,8.6,1.1c15.7,0,29.1-11,33.4-27.3
		l25.4-96.7c2.1-7.9,0.6-16.7-4-24.2c-4.7-7.6-12.1-13.1-20.7-15.4C570.5,583.8,567.6,583.4,564.7,583.4L564.7,583.4z"/>
	<path class="st1" d="M564.7,593.4c2,0,4.1,0.3,6.1,0.8c12.3,3.2,20.6,16,17.6,27.3L563,718.3c-3.1,11.8-12.7,19.8-23.7,19.8
		c-2,0-4-0.3-6-0.8c-12.8-3.4-20.4-16.5-17.1-29.2l25.4-96.7C544.3,600.8,553.8,593.4,564.7,593.4 M564.7,588.4
		c-12.8,0-24.6,8.6-28,21.6l-25.4,96.7c-4.1,15.5,5.2,31.3,20.6,35.4h0c2.4,0.6,4.9,0.9,7.3,0.9c12.9,0,24.7-8.9,28.6-23.5
		l25.4-96.7c3.6-13.5-5.7-29.4-21.2-33.4h0C569.6,588.8,567.1,588.4,564.7,588.4L564.7,588.4z"/>
</g>
<g>
	<path class="st0" d="M644.2,562.8c-8.4,0-16.3-3.3-22.2-9.2l-70.7-70.7c-12.3-12.3-12.3-32.2,0-44.5c5.9-5.9,13.8-9.2,22.2-9.2
		c8.4,0,16.3,3.3,22.2,9.2l70.7,70.7c12.3,12.3,12.3,32.2,0,44.5C660.5,559.5,652.6,562.8,644.2,562.8z"/>
	<path d="M573.5,431.7c7.4,0,14.8,2.8,20.5,8.5l70.7,70.7c11.3,11.3,11.3,29.6,0,40.9l0,0c-5.7,5.7-13.1,8.5-20.5,8.5
		c-7.4,0-14.8-2.8-20.5-8.5L553,481.1c-11.3-11.3-11.3-29.6,0-40.9l0,0C558.7,434.5,566.1,431.7,573.5,431.7 M573.5,426.7
		c-9.1,0-17.6,3.5-24,9.9c-6.4,6.4-9.9,14.9-9.9,24c0,9.1,3.5,17.6,9.9,24l70.7,70.7c6.4,6.4,14.9,9.9,24,9.9c9.1,0,17.6-3.5,24-9.9
		c13.2-13.2,13.2-34.8,0-48l-70.7-70.7C591.1,430.2,582.5,426.7,573.5,426.7L573.5,426.7z"/>
	<path class="st1" d="M573.5,436.7c6.4,0,12.4,2.5,16.9,7l70.7,70.7c9.3,9.3,9.3,24.5,0,33.9c-4.5,4.5-10.5,7-16.9,7
		c-6.4,0-12.4-2.5-16.9-7l-70.7-70.7c-4.5-4.5-7-10.5-7-16.9c0-6.4,2.5-12.4,7-16.9S567.1,436.7,573.5,436.7 M573.5,431.7
		c-7.4,0-14.8,2.8-20.5,8.5l0,0c-11.3,11.3-11.3,29.6,0,40.9l70.7,70.7c5.7,5.7,13.1,8.5,20.5,8.5c7.4,0,14.8-2.8,20.5-8.5l0,0
		c11.3-11.3,11.3-29.6,0-40.9l-70.7-70.7C588.3,434.5,580.9,431.7,573.5,431.7L573.5,431.7z"/>
</g>
<g>
	<path class="st0" d="M350,523.4c-17.3,0-31.4-14.1-31.4-31.4s14.1-31.4,31.4-31.4h100c17.3,0,31.4,14.1,31.4,31.4
		s-14.1,31.4-31.4,31.4H350z"/>
	<path d="M450,463.1c16,0,28.9,13,28.9,28.9v0c0,16-13,28.9-28.9,28.9H350c-16,0-28.9-13-28.9-28.9v0c0-16,13-28.9,28.9-28.9H450
		 M450,458.1H350c-18.7,0-33.9,15.2-33.9,33.9c0,18.7,15.2,33.9,33.9,33.9h100c18.7,0,33.9-15.2,33.9-33.9
		C483.9,473.3,468.7,458.1,450,458.1L450,458.1z"/>
	<path class="st1" d="M450,468.1c13.2,0,23.9,10.7,23.9,23.9s-10.7,23.9-23.9,23.9H350c-13.2,0-23.9-10.7-23.9-23.9
		c0-13.2,10.7-23.9,23.9-23.9H450 M450,463.1H350c-16,0-28.9,13-28.9,28.9v0c0,16,13,28.9,28.9,28.9h100c16,0,28.9-13,28.9-28.9v0
		C478.9,476,465.9,463.1,450,463.1L450,463.1z"/>
</g>
<g>
	<rect x="426.4" y="457.2" class="st0" width="169" height="169.3"/>
	<path d="M592.9,459.7V624h-164V459.7H592.9 M597.9,454.7h-5h-164h-5v5V624v5h5h164h5v-5V459.7V454.7L597.9,454.7z"/>
	<path class="st1" d="M587.9,464.7V619h-154V464.7H587.9 M592.9,459.7h-164V624h164V459.7L592.9,459.7z"/>
</g>
<g>
	<path class="st0" d="M510.9,485c-90.8,0-164.7-73.9-164.7-164.7s73.9-164.7,164.7-164.7c90.8,0,164.7,73.9,164.7,164.7
		S601.7,485,510.9,485z"/>
	<path d="M510.9,158c89.6,0,162.2,72.6,162.2,162.2s-72.6,162.2-162.2,162.2s-162.2-72.6-162.2-162.2S421.3,158,510.9,158
		 M510.9,153c-44.7,0-86.7,17.4-118.3,49c-31.6,31.6-49,73.6-49,118.3s17.4,86.7,49,118.3s73.6,49,118.3,49s86.7-17.4,118.3-49
		c31.6-31.6,49-73.6,49-118.3s-17.4-86.7-49-118.3C597.6,170.4,555.6,153,510.9,153L510.9,153z"/>
	<path class="st1" d="M510.9,163c42,0,81.5,16.4,111.2,46.1c29.7,29.7,46.1,69.2,46.1,111.2s-16.4,81.5-46.1,111.2
		c-29.7,29.7-69.2,46.1-111.2,46.1s-81.5-16.4-111.2-46.1c-29.7-29.7-46.1-69.2-46.1-111.2S370,238.7,399.7,209
		C429.4,179.3,468.9,163,510.9,163 M510.9,158c-89.6,0-162.2,72.6-162.2,162.2s72.6,162.2,162.2,162.2s162.2-72.6,162.2-162.2
		S600.5,158,510.9,158L510.9,158z"/>
</g>
<g>
	<path class="st2" d="M512.4,342.9c-46.7,0-90.6-5.2-129.1-14.5c5,58.4,60.9,104.4,129.1,104.4c68.2,0,124.1-46,129.1-104.4
		C603,337.7,559.1,342.9,512.4,342.9z"/>
	<path class="st3" d="M512.4,342.9c-46.7,0-90.6-5.2-129.1-14.5c5,58.4,60.9,104.4,129.1,104.4c68.2,0,124.1-46,129.1-104.4
		C603,337.7,559.1,342.9,512.4,342.9z"/>
	<g>
		<path class="st4" d="M633.1,337.5c-4.4,22.7-17.3,43.6-36.9,59.6c-22.8,18.5-52.6,28.7-83.8,28.7c-31.3,0-61-10.2-83.8-28.7
			c-19.7-16-32.5-36.9-36.9-59.6c37.4,8.1,78.9,12.4,120.7,12.4C554.2,349.9,595.7,345.6,633.1,337.5 M641.5,328.4
			c-38.4,9.2-82.4,14.5-129.1,14.5c-46.7,0-90.6-5.2-129.1-14.5c5,58.4,60.9,104.4,129.1,104.4C580.6,432.8,636.5,386.8,641.5,328.4
			L641.5,328.4z"/>
	</g>
</g>
<circle cx="468.6" cy="380.6" r="17.5"/>
<circle cx="548.5" cy="380.6" r="17.5"/>
<g>
	<path class="st0" d="M484.2,670.7c-7.2,0-14.1-2.7-19.4-7.6l-67.3-62c-11.6-10.7-12.3-28.8-1.6-40.5l1.1-1.2
		c5.4-5.9,13.1-9.2,21-9.2c7.2,0,14.1,2.7,19.4,7.6l67.3,62c11.6,10.7,12.3,28.8,1.6,40.5l-1.1,1.2
		C499.8,667.3,492.1,670.7,484.2,670.7z"/>
	<path d="M418,552.7c6.3,0,12.7,2.3,17.7,6.9l67.3,62c10.6,9.8,11.3,26.3,1.5,36.9l-1.1,1.2c-5.1,5.6-12.2,8.4-19.2,8.4
		c-6.3,0-12.7-2.3-17.7-6.9l-67.3-62c-10.6-9.8-11.3-26.3-1.5-36.9l1.1-1.2C404,555.5,411,552.7,418,552.7 M418,547.7L418,547.7
		c-8.7,0-17,3.7-22.9,10l-1.1,1.2c-11.6,12.6-10.8,32.3,1.8,44l67.3,62c5.8,5.3,13.3,8.2,21.1,8.2c8.7,0,17-3.7,22.9-10l1.1-1.2
		c11.6-12.6,10.8-32.3-1.8-44l-67.3-62C433.4,550.6,425.9,547.7,418,547.7L418,547.7z"/>
	<path class="st1" d="M418,552.7v5c5.3,0,10.4,2,14.3,5.6l67.3,62c8.6,7.9,9.1,21.3,1.2,29.9l-1.1,1.2c-4,4.3-9.7,6.8-15.5,6.8
		c-5.3,0-10.4-2-14.3-5.6l-67.3-62c-8.6-7.9-9.1-21.3-1.2-29.9l1.1-1.2c4-4.3,9.6-6.8,15.5-6.8L418,552.7 M418,552.7
		c-7,0-14.1,2.8-19.2,8.4l-1.1,1.2c-9.8,10.6-9.1,27.1,1.5,36.9l67.3,62c5,4.6,11.4,6.9,17.7,6.9c7,0,14.1-2.8,19.2-8.4l1.1-1.2
		c9.8-10.6,9.1-27.1-1.5-36.9l-67.3-62C430.7,554.9,424.4,552.7,418,552.7L418,552.7z"/>
</g>
<g>
	<polygon class="st5" points="275.6,504.4 245.6,504 264.2,480.5 255.4,451.9 283.5,462.3 308,445.1 306.8,475 330.7,493 301.9,501
		292.2,529.4 	"/>
	<path class="st6" d="M306.9,447.1l-1.2,28.4l22.7,17.1l-27.4,7.7l-9.2,26.9l-15.8-23.7l-28.4-0.4l17.7-22.3l-8.4-27.2l26.7,9.9
		L306.9,447.1 M309.1,443.1l-3.3,2.3l-22.4,15.7l-25.7-9.5l-3.8-1.4l1.2,3.9l8.1,26.2l-17,21.5l-2.5,3.2l4.1,0.1l27.4,0.4l15.2,22.8
		l2.2,3.4l1.3-3.8l8.9-25.9l26.4-7.4l3.9-1.1l-3.2-2.4l-21.9-16.4l1.1-27.4L309.1,443.1L309.1,443.1z"/>
	<polygon class="st7" points="291.9,527.1 276.1,503.4 247.7,503 265.3,480.7 257,453.5 283.6,463.4 306.9,447.1 305.7,475.5
		328.5,492.6 301.1,500.2 	"/>
</g>
</svg>
