<?xml version="1.0" encoding="utf-8"?>
<!-- Generator: Adobe Illustrator 19.2.0, SVG Export Plug-In . SVG Version: 6.00 Build 0)  -->
<svg version="1.1" id="Layer_1" xmlns="http://www.w3.org/2000/svg" xmlns:xlink="http://www.w3.org/1999/xlink" x="0px" y="0px"
	 viewBox="0 0 100 100" style="enable-background:new 0 0 100 100;" xml:space="preserve">
<style type="text/css">
	.st0{fill:#939598;}
</style>
<path class="st0" d="M94.4,30.3H5.6c-1.4,0-2.6-1.1-2.6-2.6V4.6C3,3.1,4.1,2,5.6,2h88.9C95.9,2,97,3.1,97,4.6v23.1
	C97,29.1,95.9,30.3,94.4,30.3z"/>
<path class="st0" d="M94.4,64.1H5.6C4.1,64.1,3,63,3,61.6V38.4c0-1.4,1.1-2.6,2.6-2.6h88.9c1.4,0,2.6,1.1,2.6,2.6v23.1
	C97,63,95.9,64.1,94.4,64.1z"/>
<path class="st0" d="M94.4,98H5.6C4.1,98,3,96.9,3,95.4V72.3c0-1.4,1.1-2.6,2.6-2.6h88.9c1.4,0,2.6,1.1,2.6,2.6v23.1
	C97,96.9,95.9,98,94.4,98z"/>
</svg>
