<?xml version="1.0" encoding="utf-8"?>
<!-- Generator: Adobe Illustrator 19.2.0, SVG Export Plug-In . SVG Version: 6.00 Build 0)  -->
<svg version="1.1" id="Layer_1" xmlns="http://www.w3.org/2000/svg" xmlns:xlink="http://www.w3.org/1999/xlink" x="0px" y="0px"
	 viewBox="0 0 100 100" style="enable-background:new 0 0 100 100;" xml:space="preserve">
<style type="text/css">
	.st0{fill:#939598;}
</style>
<path class="st0" d="M94.4,24.4H5.6c-1.4,0-2.6-1.1-2.6-2.6V4.6C3,3.1,4.1,2,5.6,2h88.9C95.9,2,97,3.1,97,4.6v17.3
	C97,23.3,95.9,24.4,94.4,24.4z"/>
<path class="st0" d="M94.4,60H5.6C4.1,60,3,58.9,3,57.5V40.1c0-1.4,1.1-2.6,2.6-2.6h88.9c1.4,0,2.6,1.1,2.6,2.6v17.3
	C97,58.9,95.9,60,94.4,60z"/>
<path class="st0" d="M94.4,95.6H5.6C4.1,95.6,3,94.4,3,93V75.7c0-1.4,1.1-2.6,2.6-2.6h88.9c1.4,0,2.6,1.1,2.6,2.6V93
	C97,94.4,95.9,95.6,94.4,95.6z"/>
</svg>
