<svg version="1.1" id="armandos-logo" xmlns="http://www.w3.org/2000/svg" xmlns:xlink="http://www.w3.org/1999/xlink" x="0px" y="0px" viewBox="0 0 595.3 841.9" style="enable-background:new 0 0 595.3 841.9;" xml:space="preserve">
    <style type="text/css">
        .st0{fill:none;stroke:#000000;stroke-width:24;stroke-miterlimit:10;}
        .st1{stroke:#1D1D1C;stroke-width:0.5;stroke-miterlimit:10;}
    </style>
    <path class="st0" d="M420.2,394.6c-26.2,56.6-83.5,95.9-150,95.9c-91.2,0-165.2-74-165.2-165.2s74-165.2,165.2-165.2
        c68.4,0,127.1,41.6,152.2,100.9"/>
    <path id="logo-drop-__c-letter" class="st0" d="M422.4,261c8.4,19.8,13,41.5,13,64.3c0,24.7-5.4,48.2-15.2,69.3"/>

    <path d="M108.8,620.8c-1.1,0.6-2.2,1-3.3,1.3s-2.4,0.5-3.6,0.5c-2.1,0-4-0.4-5.8-1.2s-3.4-1.8-4.8-3.2s-2.4-3-3.2-4.8
        c-0.8-1.8-1.2-3.7-1.2-5.8c0-2,0.4-4,1.2-5.8c0.8-1.8,1.8-3.4,3.2-4.8c1.4-1.4,2.9-2.5,4.8-3.2s3.7-1.2,5.8-1.2c2,0,4,0.4,5.8,1.2
        c1.8,0.8,3.4,1.8,4.8,3.2s2.4,3,3.2,4.8c0.8,1.8,1.2,3.7,1.2,5.8v13c0,0.5-0.2,1-0.6,1.4c-0.4,0.4-0.8,0.6-1.4,0.6
        c-0.5,0-1-0.2-1.4-0.6c-0.4-0.4-0.6-0.9-0.6-1.4v-2.9C111.7,618.9,110.4,619.9,108.8,620.8z M90.8,607.6c0,1.5,0.3,2.9,0.9,4.3
        c0.6,1.3,1.4,2.5,2.4,3.5s2.2,1.8,3.5,2.4c1.3,0.6,2.8,0.9,4.3,0.9s2.9-0.3,4.3-0.9s2.5-1.4,3.5-2.4c1-1,1.8-2.2,2.4-3.5
        c0.6-1.3,0.9-2.8,0.9-4.3s-0.3-2.9-0.9-4.3c-0.6-1.3-1.4-2.5-2.4-3.5c-1-1-2.2-1.8-3.5-2.4c-1.3-0.6-2.8-0.9-4.3-0.9
        c-1.5,0-2.9,0.3-4.3,0.9c-1.3,0.6-2.5,1.4-3.5,2.4s-1.8,2.2-2.4,3.5C91.1,604.7,90.8,606.1,90.8,607.6z"/>
    <path d="M122.7,622.5c-0.5,0-1-0.2-1.4-0.6c-0.4-0.4-0.6-0.8-0.6-1.4v-16.2c0-1.6,0.3-3.1,0.9-4.5c0.6-1.4,1.5-2.7,2.5-3.7
        s2.3-1.9,3.7-2.5c1.4-0.6,2.9-0.9,4.5-0.9h3.2c0.5,0,1,0.2,1.4,0.6c0.4,0.4,0.6,0.8,0.6,1.4c0,0.5-0.2,1-0.6,1.4
        c-0.4,0.4-0.9,0.6-1.4,0.6h-3.2c-1.1,0-2.1,0.2-3,0.6s-1.8,1-2.5,1.7c-0.7,0.7-1.2,1.5-1.7,2.5c-0.4,1-0.6,2-0.6,3v16.2
        c0,0.5-0.2,1-0.6,1.4C123.7,622.4,123.2,622.5,122.7,622.5z"/>
    <path d="M143.6,622.5c-0.5,0-1-0.2-1.4-0.6c-0.4-0.4-0.6-0.8-0.6-1.4v-16.2c0-1.6,0.3-3.1,0.9-4.5c0.6-1.4,1.5-2.7,2.5-3.7
        c1.1-1.1,2.3-1.9,3.7-2.5s2.9-0.9,4.5-0.9c2,0,3.8,0.5,5.5,1.4s3.1,2.2,4.2,3.8c1.1-1.6,2.4-2.9,4.1-3.8s3.6-1.4,5.5-1.4
        c1.6,0,3.1,0.3,4.5,0.9c1.4,0.6,2.7,1.5,3.7,2.5s1.9,2.3,2.5,3.7c0.6,1.4,0.9,2.9,0.9,4.5v16.2c0,0.5-0.2,1-0.6,1.4
        c-0.4,0.4-0.8,0.6-1.4,0.6s-1-0.2-1.4-0.6c-0.4-0.4-0.6-0.8-0.6-1.4v-16.2c0-1.1-0.2-2.1-0.6-3s-0.9-1.8-1.7-2.5
        c-0.7-0.7-1.5-1.3-2.5-1.7c-0.9-0.4-2-0.6-3-0.6s-2.1,0.2-3,0.6c-0.9,0.4-1.8,1-2.5,1.7c-0.7,0.7-1.2,1.5-1.7,2.5s-0.6,2-0.6,3v16.2
        c0,0.5-0.2,1-0.6,1.4c-0.4,0.4-0.8,0.6-1.4,0.6s-1-0.2-1.4-0.6c-0.4-0.4-0.6-0.8-0.6-1.4v-16.2c0-1.1-0.2-2.1-0.6-3
        s-0.9-1.8-1.7-2.5c-0.7-0.7-1.5-1.3-2.5-1.7c-0.9-0.4-2-0.6-3-0.6s-2.1,0.2-3,0.6c-0.9,0.4-1.8,1-2.5,1.7c-0.7,0.7-1.2,1.5-1.7,2.5
        s-0.6,2-0.6,3v16.2c0,0.5-0.2,1-0.6,1.4C144.6,622.4,144.2,622.5,143.6,622.5z"/>
    <path d="M209.6,620.8c-1.1,0.6-2.2,1-3.4,1.3c-1.2,0.3-2.4,0.5-3.6,0.5c-2.1,0-4-0.4-5.8-1.2c-1.8-0.8-3.4-1.8-4.8-3.2
        s-2.4-3-3.2-4.8c-0.8-1.8-1.2-3.7-1.2-5.8c0-2,0.4-4,1.2-5.8s1.9-3.4,3.2-4.8s2.9-2.5,4.8-3.2c1.8-0.8,3.7-1.2,5.8-1.2
        c2,0,4,0.4,5.8,1.2c1.8,0.8,3.4,1.8,4.8,3.2s2.4,3,3.2,4.8s1.2,3.7,1.2,5.8v13c0,0.5-0.2,1-0.6,1.4c-0.4,0.4-0.9,0.6-1.4,0.6
        c-0.5,0-1-0.2-1.4-0.6c-0.4-0.4-0.6-0.9-0.6-1.4v-2.9C212.5,618.9,211.1,619.9,209.6,620.8z M191.6,607.6c0,1.5,0.3,2.9,0.9,4.3
        c0.6,1.3,1.4,2.5,2.4,3.5s2.2,1.8,3.5,2.4c1.4,0.6,2.8,0.9,4.3,0.9s2.9-0.3,4.3-0.9s2.5-1.4,3.5-2.4c1-1,1.8-2.2,2.4-3.5
        c0.6-1.3,0.9-2.8,0.9-4.3s-0.3-2.9-0.9-4.3c-0.6-1.3-1.4-2.5-2.4-3.5c-1-1-2.2-1.8-3.5-2.4c-1.4-0.6-2.8-0.9-4.3-0.9
        c-1.5,0-2.9,0.3-4.3,0.9c-1.4,0.6-2.5,1.4-3.5,2.4s-1.8,2.2-2.4,3.5S191.6,606.1,191.6,607.6z"/>
    <path d="M223.1,622.5c-0.6,0-1.1-0.2-1.4-0.6c-0.4-0.4-0.6-0.9-0.6-1.4v-13c0-2,0.4-4,1.2-5.8s1.9-3.4,3.2-4.8
        c1.4-1.4,2.9-2.5,4.8-3.2c1.8-0.8,3.7-1.2,5.8-1.2c2,0,4,0.4,5.8,1.2c1.8,0.8,3.4,1.8,4.8,3.2s2.4,3,3.2,4.8
        c0.8,1.8,1.2,3.7,1.2,5.8v13c0,0.5-0.2,1-0.6,1.4c-0.4,0.4-0.9,0.6-1.4,0.6c-0.5,0-1-0.2-1.4-0.6c-0.4-0.4-0.6-0.9-0.6-1.4v-13
        c0-1.5-0.3-2.9-0.9-4.3c-0.6-1.3-1.4-2.5-2.4-3.5c-1-1-2.2-1.8-3.5-2.4c-1.4-0.6-2.8-0.9-4.3-0.9c-1.6,0-3,0.3-4.3,0.9
        c-1.3,0.6-2.5,1.4-3.5,2.4s-1.8,2.2-2.4,3.5c-0.6,1.3-0.9,2.8-0.9,4.3v13c0,0.5-0.2,1-0.6,1.4C224.1,622.3,223.7,622.5,223.1,622.5z
        "/>
    <path d="M270,592.7c2.5,0,4.8,0.6,7,1.8c1.5,0.8,2.9,1.9,4,3.1v-19.2c0-0.5,0.2-1,0.6-1.4c0.4-0.4,0.9-0.6,1.4-0.6
        c0.5,0,1,0.2,1.4,0.6c0.4,0.4,0.6,0.8,0.6,1.4v29.2c0,2.1-0.4,4-1.2,5.8s-1.9,3.4-3.2,4.8s-3,2.5-4.8,3.2c-1.8,0.8-3.7,1.2-5.8,1.2
        c-2.1,0-4-0.4-5.8-1.2c-1.8-0.8-3.4-1.8-4.8-3.2s-2.5-3-3.2-4.8c-0.8-1.8-1.2-3.7-1.2-5.8c0-2,0.4-4,1.2-5.8
        c0.8-1.8,1.9-3.4,3.2-4.8c1.4-1.4,3-2.5,4.8-3.2C265.9,593.1,267.9,592.7,270,592.7z M281,607.6c0-1.5-0.3-2.9-0.9-4.3
        c-0.6-1.3-1.4-2.5-2.4-3.5c-1-1-2.2-1.8-3.5-2.4c-1.4-0.6-2.8-0.9-4.3-0.9s-2.9,0.3-4.3,0.9c-1.4,0.6-2.5,1.4-3.5,2.4
        s-1.8,2.2-2.4,3.5c-0.6,1.3-0.9,2.8-0.9,4.3c0,1.5,0.3,3,0.9,4.3c0.6,1.3,1.4,2.5,2.4,3.5c1,1,2.2,1.8,3.5,2.4
        c1.4,0.6,2.8,0.9,4.3,0.9s2.9-0.3,4.3-0.9s2.5-1.4,3.5-2.4c1-1,1.8-2.2,2.4-3.5C280.7,610.6,281,609.2,281,607.6z"/>
    <path d="M310,620.8c-1.1,0.6-2.2,1-3.4,1.3s-2.4,0.5-3.6,0.5c-2.1,0-4-0.4-5.8-1.2c-1.8-0.8-3.4-1.8-4.8-3.2s-2.5-3-3.2-4.8
        c-0.8-1.8-1.2-3.7-1.2-5.8c0-2,0.4-4,1.2-5.8s1.9-3.4,3.2-4.8c1.4-1.4,3-2.5,4.8-3.2c1.8-0.8,3.7-1.2,5.8-1.2c2,0,4,0.4,5.8,1.2
        c1.8,0.8,3.4,1.8,4.8,3.2s2.5,3,3.2,4.8s1.2,3.7,1.2,5.8v13c0,0.5-0.2,1-0.6,1.4c-0.4,0.4-0.9,0.6-1.4,0.6c-0.5,0-1-0.2-1.4-0.6
        c-0.4-0.4-0.6-0.9-0.6-1.4v-2.9C312.9,618.9,311.6,619.9,310,620.8z M292,607.6c0,1.5,0.3,2.9,0.9,4.3c0.6,1.3,1.4,2.5,2.4,3.5
        s2.2,1.8,3.5,2.4c1.4,0.6,2.8,0.9,4.3,0.9c1.5,0,2.9-0.3,4.3-0.9s2.5-1.4,3.5-2.4c1-1,1.8-2.2,2.4-3.5c0.6-1.3,0.9-2.8,0.9-4.3
        s-0.3-2.9-0.9-4.3c-0.6-1.3-1.4-2.5-2.4-3.5c-1-1-2.2-1.8-3.5-2.4c-1.4-0.6-2.8-0.9-4.3-0.9s-2.9,0.3-4.3,0.9
        c-1.4,0.6-2.5,1.4-3.5,2.4c-1,1-1.8,2.2-2.4,3.5C292.3,604.7,292,606.1,292,607.6z"/>
    <path d="M356.1,597.6c-2,0.9-3.6,2.2-4.8,4c-1.2,1.8-1.8,3.8-1.8,6s0.6,4.2,1.8,6c1.2,1.8,2.8,3.1,4.8,4c1.5,0.7,3,1,4.6,1
        c2.7,0,5.1-0.9,7.2-2.8c0.4-0.3,0.9-0.5,1.3-0.5c0.5,0,1,0.2,1.5,0.7c0.4,0.4,0.5,0.9,0.5,1.4c0,0.5-0.3,1-0.7,1.4
        c-1.4,1.2-3,2.1-4.6,2.8c-1.7,0.6-3.5,0.9-5.2,0.9c-2.1,0-4.1-0.4-6.2-1.3c-2.7-1.2-4.9-3.1-6.4-5.5c-1.5-2.4-2.3-5.1-2.3-8.1
        c0-3,0.8-5.7,2.3-8.1c1.5-2.4,3.7-4.2,6.4-5.5c2-0.9,4.1-1.3,6.2-1.3c1.7,0,3.5,0.3,5.2,0.9c1.7,0.7,3.2,1.6,4.6,2.8
        c0.4,0.3,0.6,0.8,0.7,1.4c0,0.6-0.2,1-0.5,1.4c-0.4,0.4-0.9,0.7-1.5,0.7s-1-0.2-1.3-0.5c-1-0.9-2.1-1.6-3.4-2
        c-1.2-0.5-2.5-0.7-3.9-0.7C359.1,596.6,357.6,596.9,356.1,597.6z"/>
    <path d="M396.4,620.8c-1.1,0.6-2.2,1-3.4,1.3s-2.4,0.5-3.6,0.5c-2.1,0-4-0.4-5.8-1.2c-1.8-0.8-3.4-1.8-4.8-3.2s-2.5-3-3.2-4.8
        c-0.8-1.8-1.2-3.7-1.2-5.8c0-2,0.4-4,1.2-5.8s1.9-3.4,3.2-4.8c1.4-1.4,3-2.5,4.8-3.2c1.8-0.8,3.7-1.2,5.8-1.2c2,0,4,0.4,5.8,1.2
        c1.8,0.8,3.4,1.8,4.8,3.2s2.5,3,3.2,4.8s1.2,3.7,1.2,5.8v13c0,0.5-0.2,1-0.6,1.4c-0.4,0.4-0.9,0.6-1.4,0.6c-0.5,0-1-0.2-1.4-0.6
        c-0.4-0.4-0.6-0.9-0.6-1.4v-2.9C399.4,618.9,398,619.9,396.4,620.8z M378.4,607.6c0,1.5,0.3,2.9,0.9,4.3c0.6,1.3,1.4,2.5,2.4,3.5
        s2.2,1.8,3.5,2.4c1.4,0.6,2.8,0.9,4.3,0.9c1.5,0,2.9-0.3,4.3-0.9s2.5-1.4,3.5-2.4c1-1,1.8-2.2,2.4-3.5c0.6-1.3,0.9-2.8,0.9-4.3
        s-0.3-2.9-0.9-4.3c-0.6-1.3-1.4-2.5-2.4-3.5c-1-1-2.2-1.8-3.5-2.4c-1.4-0.6-2.8-0.9-4.3-0.9s-2.9,0.3-4.3,0.9
        c-1.4,0.6-2.5,1.4-3.5,2.4c-1,1-1.8,2.2-2.4,3.5C378.7,604.7,378.4,606.1,378.4,607.6z"/>
    <path d="M437.8,607.6c0,2.1-0.4,4-1.2,5.8s-1.9,3.4-3.2,4.8s-3,2.5-4.8,3.2c-1.8,0.8-3.7,1.2-5.8,1.2c-2.5,0-4.8-0.6-7-1.7
        c-1.5-0.8-2.8-1.9-4-3.2v15.8c0,0.5-0.2,1-0.6,1.4c-0.4,0.4-0.8,0.6-1.4,0.6s-1-0.2-1.4-0.6c-0.4-0.4-0.6-0.9-0.6-1.4v-25.8
        c0-2,0.4-4,1.2-5.8s1.9-3.4,3.2-4.8c1.4-1.4,3-2.5,4.8-3.2s3.7-1.2,5.8-1.2c2,0,4,0.4,5.8,1.2c1.8,0.8,3.4,1.8,4.8,3.2
        s2.5,3,3.2,4.8C437.4,603.7,437.8,605.6,437.8,607.6z M411.9,607.6c0,1.5,0.3,3,0.9,4.3c0.6,1.3,1.4,2.5,2.4,3.5
        c1,1,2.2,1.8,3.5,2.4c1.4,0.6,2.8,0.9,4.3,0.9s2.9-0.3,4.3-0.9s2.5-1.4,3.5-2.4c1-1,1.8-2.2,2.4-3.5c0.6-1.3,0.9-2.8,0.9-4.3
        c0-1.5-0.3-2.9-0.9-4.3c-0.6-1.3-1.4-2.5-2.4-3.5c-1-1-2.2-1.8-3.5-2.4c-1.4-0.6-2.8-0.9-4.3-0.9c-1.5,0-2.9,0.3-4.3,0.9
        c-1.4,0.6-2.5,1.4-3.5,2.4s-1.8,2.2-2.4,3.5C412.2,604.7,411.9,606.1,411.9,607.6z"/>
    <path d="M463.1,620.8c-1.1,0.6-2.2,1-3.4,1.3s-2.4,0.5-3.6,0.5c-2.1,0-4-0.4-5.8-1.2c-1.8-0.8-3.4-1.8-4.8-3.2s-2.5-3-3.2-4.8
        c-0.8-1.8-1.2-3.7-1.2-5.8c0-2,0.4-4,1.2-5.8s1.9-3.4,3.2-4.8c1.4-1.4,3-2.5,4.8-3.2c1.8-0.8,3.7-1.2,5.8-1.2c2,0,4,0.4,5.8,1.2
        c1.8,0.8,3.4,1.8,4.8,3.2s2.5,3,3.2,4.8s1.2,3.7,1.2,5.8v13c0,0.5-0.2,1-0.6,1.4c-0.4,0.4-0.9,0.6-1.4,0.6c-0.5,0-1-0.2-1.4-0.6
        c-0.4-0.4-0.6-0.9-0.6-1.4v-2.9C466.1,618.9,464.7,619.9,463.1,620.8z M445.1,607.6c0,1.5,0.3,2.9,0.9,4.3c0.6,1.3,1.4,2.5,2.4,3.5
        s2.2,1.8,3.5,2.4c1.4,0.6,2.8,0.9,4.3,0.9c1.5,0,2.9-0.3,4.3-0.9s2.5-1.4,3.5-2.4c1-1,1.8-2.2,2.4-3.5c0.6-1.3,0.9-2.8,0.9-4.3
        s-0.3-2.9-0.9-4.3c-0.6-1.3-1.4-2.5-2.4-3.5c-1-1-2.2-1.8-3.5-2.4c-1.4-0.6-2.8-0.9-4.3-0.9s-2.9,0.3-4.3,0.9
        c-1.4,0.6-2.5,1.4-3.5,2.4c-1,1-1.8,2.2-2.4,3.5C445.4,604.7,445.1,606.1,445.1,607.6z"/>
    <path d="M480.6,622.5c-0.5,0-1-0.2-1.4-0.6c-0.4-0.4-0.6-0.8-0.6-1.4v-25.9c0-0.6,0.2-1,0.6-1.4s0.8-0.6,1.4-0.6s1,0.2,1.4,0.6
        c0.4,0.4,0.6,0.8,0.6,1.4v25.9c0,0.6-0.2,1-0.6,1.4S481.2,622.5,480.6,622.5z M482.5,587.3c0,1.1-0.9,2-2,2s-2-0.9-2-2s0.9-2,2-2
        C481.6,585.3,482.5,586.2,482.5,587.3z"/>
    <path d="M494,596.8v11c0,1.3,0.2,2.6,0.5,3.8c0.4,1.3,0.8,2.4,1.5,3.5c0.5,0.9,1.2,1.7,2.1,2.5c0.9,0.8,2.1,1.2,3.6,1.2
        c0.6,0,1,0.2,1.4,0.6c0.4,0.4,0.6,0.8,0.6,1.4c0,0.6-0.2,1-0.6,1.4c-0.4,0.4-0.9,0.6-1.4,0.6c-1.9,0-3.6-0.5-5.2-1.5
        c-1.5-0.9-2.7-2.1-3.6-3.7c-0.9-1.4-1.6-2.9-2.1-4.6s-0.7-3.4-0.7-5.1v-29.2c0-0.5,0.2-1,0.6-1.4s0.9-0.6,1.4-0.6
        c0.5,0,1,0.2,1.4,0.6c0.4,0.4,0.6,0.8,0.6,1.4v14.3h7.8c0.6,0,1,0.2,1.4,0.6c0.4,0.4,0.6,0.8,0.6,1.4c0,0.5-0.2,1-0.6,1.4
        c-0.4,0.4-0.9,0.6-1.4,0.6L494,596.8L494,596.8z"/>
    <g>
        <circle cx="521.5" cy="587.1" r="2"/>
        <g>
            <path class="st1" d="M522,594.1c2,0,3.8,0.4,5.6,1.1s3.3,1.8,4.5,3.1c1.3,1.3,2.3,2.8,3.1,4.5c0.8,1.8,1.1,3.6,1.1,5.6
                c0,0.3-0.1,0.6-0.4,0.9c-0.2,0.3-0.6,0.4-1,0.4h-24.6c0.2,1.5,0.6,2.8,1.2,4.1c0.7,1.3,1.5,2.4,2.6,3.3c1,0.9,2.2,1.7,3.6,2.2
                c1.3,0.5,2.8,0.8,4.3,0.8c2.3,0,4.4-0.6,6.3-1.8c1.9-1.2,3.3-2.9,4.3-4.9c0.1-0.2,0.2-0.4,0.5-0.6s0.5-0.2,0.7-0.2
                c0.4,0,0.8,0.1,1,0.4c0.2,0.3,0.3,0.6,0.3,0.9c0,0.2,0,0.4-0.1,0.5c-1.2,2.5-3,4.5-5.3,6c-2.3,1.5-4.9,2.2-7.7,2.2
                c-2,0-3.8-0.4-5.6-1.1s-3.3-1.8-4.5-3.1c-1.3-1.3-2.3-2.8-3.1-4.5c-0.8-1.8-1.1-3.6-1.1-5.6c0-2,0.4-3.8,1.1-5.6s1.8-3.3,3.1-4.5
                c1.3-1.3,2.8-2.3,4.5-3.1C518.2,594.5,520,594.1,522,594.1z M522,596.7c-1.5,0-2.9,0.3-4.3,0.8c-1.3,0.5-2.5,1.3-3.6,2.2
                s-1.9,2-2.6,3.3c-0.6,1.3-1.1,2.7-1.2,4.1h23.2c-0.2-1.4-0.6-2.8-1.2-4.1c-0.7-1.3-1.5-2.4-2.6-3.3s-2.2-1.7-3.6-2.2
                C525,597,523.5,596.7,522,596.7z"/>
        </g>
    </g>
</svg>
